<?xml version="1.0" encoding="UTF-8" standalone="no"?>
<!-- Created with Inkscape (http://www.inkscape.org/) -->

<svg
   xmlns:dc="http://purl.org/dc/elements/1.1/"
   xmlns:cc="http://creativecommons.org/ns#"
   xmlns:rdf="http://www.w3.org/1999/02/22-rdf-syntax-ns#"
   xmlns:svg="http://www.w3.org/2000/svg"
   xmlns="http://www.w3.org/2000/svg"
   xmlns:xlink="http://www.w3.org/1999/xlink"
   xmlns:sodipodi="http://sodipodi.sourceforge.net/DTD/sodipodi-0.dtd"
   xmlns:inkscape="http://www.inkscape.org/namespaces/inkscape"
   width="16"
   height="16"
   id="svg2"
   version="1.1"
   inkscape:version="0.48.5 r10040"
   sodipodi:docname="__.svg"
   inkscape:export-filename="F:\CURRENT\GitHub\rocketscientist26.github.io\images\flags\__.png"
   inkscape:export-xdpi="80"
   inkscape:export-ydpi="80">
  <title
     id="title2985">RU</title>
  <defs
     id="defs4">
    <linearGradient
       id="linearGradient4027">
      <stop
         style="stop-color:#000000;stop-opacity:0.60000002;"
         offset="0"
         id="stop4029" />
      <stop
         style="stop-color:#000000;stop-opacity:0;"
         offset="1"
         id="stop4031" />
    </linearGradient>
    <radialGradient
       inkscape:collect="always"
       xlink:href="#linearGradient4027"
       id="radialGradient4033"
       cx="5.0659285"
       cy="1043.0408"
       fx="5.0659285"
       fy="1043.0408"
       r="7"
       gradientUnits="userSpaceOnUse"
       gradientTransform="matrix(0.68121018,0.23305889,-1.1880326,3.472512,1242.4171,-2581.823)" />
    <radialGradient
       inkscape:collect="always"
       xlink:href="#linearGradient4027"
       id="radialGradient4037"
       gradientUnits="userSpaceOnUse"
       gradientTransform="matrix(0.68121018,0.23305889,-1.1880326,3.472512,1242.4171,-2581.823)"
       cx="19.093487"
       cy="1044.3137"
       fx="19.093487"
       fy="1044.3137"
       r="7" />
    <filter
       id="filter4079"
       inkscape:label="filter3"
       color-interpolation-filters="sRGB">
      <feGaussianBlur
         stdDeviation="0.80000000000000004"
         id="feGaussianBlur4081" />
    </filter>
    <radialGradient
       inkscape:collect="always"
       xlink:href="#linearGradient4027"
       id="radialGradient4107"
       gradientUnits="userSpaceOnUse"
       gradientTransform="matrix(0.68121018,0.23305889,-1.1880326,3.472512,1242.4171,-2581.823)"
       cx="5.0659285"
       cy="1043.0408"
       fx="5.0659285"
       fy="1043.0408"
       r="7" />
    <radialGradient
       inkscape:collect="always"
       xlink:href="#linearGradient4027"
       id="radialGradient4109"
       gradientUnits="userSpaceOnUse"
       gradientTransform="matrix(0.68121018,0.23305889,-1.1880326,3.472512,1242.4171,-2581.823)"
       cx="19.093487"
       cy="1044.3137"
       fx="19.093487"
       fy="1044.3137"
       r="7" />
    <radialGradient
       inkscape:collect="always"
       xlink:href="#linearGradient4027"
       id="radialGradient3029"
       gradientUnits="userSpaceOnUse"
       gradientTransform="matrix(0.77852589,0.26635301,-1.3577515,3.968585,1417.6195,-3098.7065)"
       cx="19.093487"
       cy="1044.3137"
       fx="19.093487"
       fy="1044.3137"
       r="7" />
    <radialGradient
       inkscape:collect="always"
       xlink:href="#linearGradient4027"
       id="radialGradient3032"
       gradientUnits="userSpaceOnUse"
       gradientTransform="matrix(0.77852589,0.26635301,-1.3577515,3.968585,1417.6195,-3098.7065)"
       cx="5.0659285"
       cy="1043.0408"
       fx="5.0659285"
       fy="1043.0408"
       r="7" />
    <radialGradient
       inkscape:collect="always"
       xlink:href="#linearGradient4027"
       id="radialGradient3820"
       gradientUnits="userSpaceOnUse"
       gradientTransform="matrix(0.77852589,0.26635301,-1.3577515,3.968585,1417.6195,-3098.7065)"
       cx="19.093487"
       cy="1044.3137"
       fx="19.093487"
       fy="1044.3137"
       r="7" />
    <radialGradient
       inkscape:collect="always"
       xlink:href="#linearGradient4027"
       id="radialGradient3822"
       gradientUnits="userSpaceOnUse"
       gradientTransform="matrix(0.77852589,0.26635301,-1.3577515,3.968585,1417.6195,-3098.7065)"
       cx="5.0659285"
       cy="1043.0408"
       fx="5.0659285"
       fy="1043.0408"
       r="7" />
  </defs>
  <sodipodi:namedview
     id="base"
     pagecolor="#ffffff"
     bordercolor="#666666"
     borderopacity="1.0"
     inkscape:pageopacity="0.0"
     inkscape:pageshadow="2"
     inkscape:zoom="1"
     inkscape:cx="-7.2900696"
     inkscape:cy="18.418227"
     inkscape:document-units="px"
     inkscape:current-layer="layer1"
     showgrid="false"
     inkscape:window-width="1280"
     inkscape:window-height="977"
     inkscape:window-x="-4"
     inkscape:window-y="-4"
     inkscape:window-maximized="1"
     inkscape:snap-bbox="true"
     inkscape:bbox-paths="true"
     inkscape:snap-bbox-edge-midpoints="true"
     inkscape:snap-bbox-midpoints="true"
     inkscape:bbox-nodes="true"
     inkscape:snap-page="true"
     inkscape:snap-center="true"
     inkscape:snap-midpoints="true"
     inkscape:snap-object-midpoints="true"
     inkscape:snap-smooth-nodes="true"
     inkscape:object-nodes="true"
     inkscape:object-paths="true"
     inkscape:snap-intersection-paths="true"
     showguides="true"
     inkscape:guide-bbox="true"
     showborder="false"
     inkscape:snap-global="true">
    <inkscape:grid
       type="xygrid"
       id="grid3968"
       empspacing="5"
       visible="true"
       enabled="true"
       snapvisiblegridlinesonly="true" />
  </sodipodi:namedview>
  <metadata
     id="metadata7">
    <rdf:RDF>
      <cc:Work
         rdf:about="">
        <dc:format>image/svg+xml</dc:format>
        <dc:type
           rdf:resource="http://purl.org/dc/dcmitype/StillImage" />
        <dc:title>RU</dc:title>
      </cc:Work>
    </rdf:RDF>
  </metadata>
  <g
     inkscape:label="Layer 1"
     inkscape:groupmode="layer"
     id="layer1"
     transform="translate(0,-1036.3622)">
    <rect
       style="fill:#333333;fill-rule:evenodd;stroke:none"
       id="rect3759"
       width="15.999999"
       height="15.999999"
       x="-1e-007"
       y="1036.3622" />
    <g
       transform="matrix(0.08860784,0,0,0.08860784,-99.210714,935.15095)"
       id="g3916">
      <path
         style="font-size:8.16516685px;font-style:normal;font-weight:normal;line-height:125%;letter-spacing:0px;word-spacing:0px;fill:#ff6600;fill-opacity:1;stroke:none;font-family:Sans;-inkscape-font-specification:Sans"
         d="m 1130,1289.0747 c 35.7251,-5.7698 67.4709,-8.8194 108.3264,-8.8647 14.2754,-0.011 29.6628,0.3351 46.7211,1.0649 0,0 -18.0029,-5.0117 -21.4318,-9.4673 0,0 -23.1714,-0.086 -67.2571,4.9988 -44.0857,5.0844 -66.3586,12.2683 -66.3586,12.2683 z"
         id="path10840-7-4"
         inkscape:connector-curvature="0" />
      <path
         id="path10836-4-5"
         style="font-size:8.16516685px;font-style:normal;font-weight:normal;line-height:125%;letter-spacing:0px;word-spacing:0px;fill:#ffffff;fill-opacity:1;stroke:none;font-family:Sans;-inkscape-font-specification:Sans"
         d="m 1217.7266,1193.8677 c -4.4419,-0.3455 -10.7582,-0.7141 -14.7553,-0.506 -3.8591,0.2133 -4.6223,-1.1344 -7.69,-2.2358 -3.0531,-1.0852 -8.4113,-1.9619 -8.4113,-1.9619 0,0 4.0389,-1.1842 6.5797,-0.9998 2.5399,0.2132 1.9163,-0.4208 8.3006,2.4288 3.9976,1.8055 11.1602,2.7913 15.9763,3.2885 z m -61.5491,1.6522 c 3.4147,4.1363 12.2286,15.4343 12.6039,22.2499 0.4599,8.4545 -6.3859,27.5683 -12.535,32.2164 -4.7748,3.6115 -15.6288,6.9965 -20.3764,8.3694 l -2.0391,0.57 -0.3502,0.1415 c 0,0 -0.8698,3.2015 1.0872,6.9515 1.2509,2.3867 2.9841,4.7036 6.8427,5.0389 0.5227,9.5028 -9.5179,16.3397 -9.5179,16.3397 0,0 27.2093,-8.3872 59.6649,-12.9969 32.4556,-4.6096 70.5988,-7.9927 70.5988,-7.9927 l -6e-4,0 c 0,0 -0.1098,-2.4218 -0.084,-3.7085 0.115,-6.4966 1.4055,-13.7593 1.4055,-13.8638 4.2475,-1.1961 8.8557,-2.6656 13.076,-4.3594 12.1737,-4.8431 11.4377,-10.758 11.4377,-10.758 0,0 -9.911,-6.3847 -25.2209,-12.1442 -15.311,-5.7739 -13.5197,-17.7246 -32.5366,-30.3981 -19.0164,-12.6762 -23.3193,-5.9554 -43.113,-8.2598 -18.2946,-2.1155 -16.9769,-4.5533 -21.5296,-5.2193 -4.5527,-0.6784 -9.4102,6.1642 -10.5068,9.9954 -1.0831,3.7759 -0.345,6.0505 -0.3189,6.106 z"
         inkscape:connector-curvature="0" />
      <path
         style="font-size:8.16516685px;font-style:normal;font-weight:normal;line-height:125%;letter-spacing:0px;word-spacing:0px;fill:#ffffff;fill-opacity:1;stroke:none;font-family:Sans;-inkscape-font-specification:Sans"
         d="m 1136.3362,1257.7032 c -0.2143,-1.0612 -0.5018,-2.6225 -0.6952,-4.4532 -0.5671,-5.0388 -0.1673,-9.6219 -0.1673,-9.6219 0,0 -1.8885,6.6217 -1.498,11.2604 0.1673,1.8718 0.2561,2.6644 0.3188,3.3847"
         id="path10834-0-5"
         inkscape:connector-curvature="0" />
      <path
         style="font-size:8.16516685px;font-style:normal;font-weight:normal;line-height:125%;letter-spacing:0px;word-spacing:0px;fill:#ffffff;fill-opacity:1;stroke:none;font-family:Sans;-inkscape-font-specification:Sans"
         d="m 1154.5733,1194.7298 c -0.073,0 -0.4548,0.4213 -2.3877,3.1234 -2.151,2.999 -3.6088,8.8137 -3.6088,8.8137 0,0 1.5974,-3.4686 4.0107,-6.6488 1.624,-2.1177 3.2486,-3.4575 3.4012,-3.5663"
         id="path3454-9-1"
         inkscape:connector-curvature="0" />
    </g>
    <rect
       y="1036.3622"
       x="-2.2832614e-007"
       height="15.999999"
       width="15.999999"
       id="rect4020"
       style="opacity:0.8;fill:url(#radialGradient3822);fill-opacity:1;fill-rule:evenodd;stroke:none" />
    <rect
       style="fill:url(#radialGradient3820);fill-opacity:1;fill-rule:evenodd;stroke:none"
       id="rect4035"
       width="15.999999"
       height="15.999999"
       x="-1e-007"
       y="1036.3622" />
  </g>
</svg>
