<?xml version="1.0" encoding="UTF-8" standalone="no"?>
<!-- Created with Inkscape (http://www.inkscape.org/) -->

<svg
   xmlns:dc="http://purl.org/dc/elements/1.1/"
   xmlns:cc="http://creativecommons.org/ns#"
   xmlns:rdf="http://www.w3.org/1999/02/22-rdf-syntax-ns#"
   xmlns:svg="http://www.w3.org/2000/svg"
   xmlns="http://www.w3.org/2000/svg"
   xmlns:sodipodi="http://sodipodi.sourceforge.net/DTD/sodipodi-0.dtd"
   xmlns:inkscape="http://www.inkscape.org/namespaces/inkscape"
   width="205"
   height="60"
   id="svg2"
   version="1.1"
   inkscape:version="0.48.5 r10040"
   sodipodi:docname="Label_Hardware.svg">
  <defs
     id="defs4">
    <linearGradient
       id="linearGradient11088-3">
      <stop
         id="stop11090-4"
         offset="0"
         style="stop-color:#dc0000;stop-opacity:1;" />
      <stop
         style="stop-color:#8c0000;stop-opacity:1;"
         offset="0.21621622"
         id="stop11092-1" />
      <stop
         id="stop11094-1"
         offset="0.6081081"
         style="stop-color:#c80000;stop-opacity:1;" />
      <stop
         id="stop11096-3"
         offset="1"
         style="stop-color:#820000;stop-opacity:1;" />
    </linearGradient>
    <linearGradient
       id="linearGradient5683-1-7">
      <stop
         style="stop-color:#000000;stop-opacity:1;"
         offset="0"
         id="stop5685-5-4" />
      <stop
         style="stop-color:#000000;stop-opacity:0;"
         offset="1"
         id="stop5687-0-2" />
    </linearGradient>
    <linearGradient
       id="linearGradient11071">
      <stop
         style="stop-color:#000000;stop-opacity:1;"
         offset="0"
         id="stop11073" />
      <stop
         style="stop-color:#000000;stop-opacity:0;"
         offset="1"
         id="stop11075" />
    </linearGradient>
    <radialGradient
       cx="64"
       cy="100.2246"
       gradientTransform="matrix(1,0,0,0.977,0,0.046)"
       gradientUnits="userSpaceOnUse"
       id="radialGradient15770-9"
       r="90.000099">
      <stop
         id="stop15772-3"
         offset="0.32539999"
         style="stop-color:#ffffff;stop-opacity:1" />
      <stop
         id="stop15774-0-1"
         offset="0.3714"
         style="stop-color:#f4f4f4;stop-opacity:1" />
      <stop
         id="stop15776-4-9"
         offset="0.45199999"
         style="stop-color:#d7d7d7;stop-opacity:1" />
      <stop
         id="stop15778-1-8"
         offset="0.55690002"
         style="stop-color:#a8a8a8;stop-opacity:1" />
      <stop
         id="stop15780-7-6"
         offset="0.62129998"
         style="stop-color:#888888;stop-opacity:1" />
      <stop
         id="stop15782-7-5"
         offset="0.67930001"
         style="stop-color:#a3a3a3;stop-opacity:1" />
      <stop
         id="stop15784-2-0"
         offset="0.7396"
         style="stop-color:#bbbbbb;stop-opacity:1" />
      <stop
         id="stop15786-1-2"
         offset="0.75199997"
         style="stop-color:#b3b3b3;stop-opacity:1" />
      <stop
         id="stop15788-3-8"
         offset="0.79140002"
         style="stop-color:#a0a0a0;stop-opacity:1" />
      <stop
         id="stop15790-1-6"
         offset="0.83710003"
         style="stop-color:#929292;stop-opacity:1" />
      <stop
         id="stop15792-3-0"
         offset="0.89450002"
         style="stop-color:#8a8a8a;stop-opacity:1" />
      <stop
         id="stop15794-1-2"
         offset="1"
         style="stop-color:#888888;stop-opacity:1" />
    </radialGradient>
    <radialGradient
       cx="64"
       cy="100.2246"
       gradientTransform="matrix(1,0,0,0.977,0,0.046)"
       gradientUnits="userSpaceOnUse"
       id="radialGradient15770-9-7"
       r="90.000099">
      <stop
         id="stop15772-3-4"
         offset="0.32539999"
         style="stop-color:#ffffff;stop-opacity:1" />
      <stop
         id="stop15774-0-1-0"
         offset="0.3714"
         style="stop-color:#f4f4f4;stop-opacity:1" />
      <stop
         id="stop15776-4-9-9"
         offset="0.45199999"
         style="stop-color:#d7d7d7;stop-opacity:1" />
      <stop
         id="stop15778-1-8-4"
         offset="0.55690002"
         style="stop-color:#a8a8a8;stop-opacity:1" />
      <stop
         id="stop15780-7-6-8"
         offset="0.62129998"
         style="stop-color:#888888;stop-opacity:1" />
      <stop
         id="stop15782-7-5-8"
         offset="0.67930001"
         style="stop-color:#a3a3a3;stop-opacity:1" />
      <stop
         id="stop15784-2-0-2"
         offset="0.7396"
         style="stop-color:#bbbbbb;stop-opacity:1" />
      <stop
         id="stop15786-1-2-4"
         offset="0.75199997"
         style="stop-color:#b3b3b3;stop-opacity:1" />
      <stop
         id="stop15788-3-8-5"
         offset="0.79140002"
         style="stop-color:#a0a0a0;stop-opacity:1" />
      <stop
         id="stop15790-1-6-5"
         offset="0.83710003"
         style="stop-color:#929292;stop-opacity:1" />
      <stop
         id="stop15792-3-0-1"
         offset="0.89450002"
         style="stop-color:#8a8a8a;stop-opacity:1" />
      <stop
         id="stop15794-1-2-7"
         offset="1"
         style="stop-color:#888888;stop-opacity:1" />
    </radialGradient>
    <linearGradient
       id="linearGradient11088-3-2">
      <stop
         id="stop11090-4-1"
         offset="0"
         style="stop-color:#dc0000;stop-opacity:1;" />
      <stop
         style="stop-color:#8c0000;stop-opacity:1;"
         offset="0.21621622"
         id="stop11092-1-6" />
      <stop
         id="stop11094-1-8"
         offset="0.6081081"
         style="stop-color:#c80000;stop-opacity:1;" />
      <stop
         id="stop11096-3-5"
         offset="1"
         style="stop-color:#820000;stop-opacity:1;" />
    </linearGradient>
    <linearGradient
       id="linearGradient5683-1-7-6">
      <stop
         style="stop-color:#000000;stop-opacity:1;"
         offset="0"
         id="stop5685-5-4-1" />
      <stop
         style="stop-color:#000000;stop-opacity:0;"
         offset="1"
         id="stop5687-0-2-8" />
    </linearGradient>
    <linearGradient
       id="linearGradient4106">
      <stop
         style="stop-color:#000000;stop-opacity:1;"
         offset="0"
         id="stop4108" />
      <stop
         style="stop-color:#000000;stop-opacity:0;"
         offset="1"
         id="stop4110" />
    </linearGradient>
    <radialGradient
       cx="64"
       cy="100.2246"
       gradientTransform="matrix(1,0,0,0.977,0,0.046)"
       gradientUnits="userSpaceOnUse"
       id="radialGradient15770-9-2"
       r="90.000099">
      <stop
         id="stop15772-3-7"
         offset="0.32539999"
         style="stop-color:#ffffff;stop-opacity:1" />
      <stop
         id="stop15774-0-1-9"
         offset="0.3714"
         style="stop-color:#f4f4f4;stop-opacity:1" />
      <stop
         id="stop15776-4-9-5"
         offset="0.45199999"
         style="stop-color:#d7d7d7;stop-opacity:1" />
      <stop
         id="stop15778-1-8-43"
         offset="0.55690002"
         style="stop-color:#a8a8a8;stop-opacity:1" />
      <stop
         id="stop15780-7-6-1"
         offset="0.62129998"
         style="stop-color:#888888;stop-opacity:1" />
      <stop
         id="stop15782-7-5-2"
         offset="0.67930001"
         style="stop-color:#a3a3a3;stop-opacity:1" />
      <stop
         id="stop15784-2-0-3"
         offset="0.7396"
         style="stop-color:#bbbbbb;stop-opacity:1" />
      <stop
         id="stop15786-1-2-3"
         offset="0.75199997"
         style="stop-color:#b3b3b3;stop-opacity:1" />
      <stop
         id="stop15788-3-8-4"
         offset="0.79140002"
         style="stop-color:#a0a0a0;stop-opacity:1" />
      <stop
         id="stop15790-1-6-1"
         offset="0.83710003"
         style="stop-color:#929292;stop-opacity:1" />
      <stop
         id="stop15792-3-0-13"
         offset="0.89450002"
         style="stop-color:#8a8a8a;stop-opacity:1" />
      <stop
         id="stop15794-1-2-8"
         offset="1"
         style="stop-color:#888888;stop-opacity:1" />
    </radialGradient>
    <radialGradient
       cx="64"
       cy="100.2246"
       gradientTransform="matrix(1,0,0,0.977,0,0.046)"
       gradientUnits="userSpaceOnUse"
       id="radialGradient4131"
       r="90.000099">
      <stop
         id="stop4133"
         offset="0.32539999"
         style="stop-color:#ffffff;stop-opacity:1" />
      <stop
         id="stop4135"
         offset="0.3714"
         style="stop-color:#f4f4f4;stop-opacity:1" />
      <stop
         id="stop4137"
         offset="0.45199999"
         style="stop-color:#d7d7d7;stop-opacity:1" />
      <stop
         id="stop4139"
         offset="0.55690002"
         style="stop-color:#a8a8a8;stop-opacity:1" />
      <stop
         id="stop4141"
         offset="0.62129998"
         style="stop-color:#888888;stop-opacity:1" />
      <stop
         id="stop4143"
         offset="0.67930001"
         style="stop-color:#a3a3a3;stop-opacity:1" />
      <stop
         id="stop4145"
         offset="0.7396"
         style="stop-color:#bbbbbb;stop-opacity:1" />
      <stop
         id="stop4147"
         offset="0.75199997"
         style="stop-color:#b3b3b3;stop-opacity:1" />
      <stop
         id="stop4149"
         offset="0.79140002"
         style="stop-color:#a0a0a0;stop-opacity:1" />
      <stop
         id="stop4151"
         offset="0.83710003"
         style="stop-color:#929292;stop-opacity:1" />
      <stop
         id="stop4153"
         offset="0.89450002"
         style="stop-color:#8a8a8a;stop-opacity:1" />
      <stop
         id="stop4155"
         offset="1"
         style="stop-color:#888888;stop-opacity:1" />
    </radialGradient>
    <radialGradient
       cx="64"
       cy="100.2246"
       gradientTransform="matrix(1,0,0,0.977,0,0.046)"
       gradientUnits="userSpaceOnUse"
       id="radialGradient15770-9-7-7"
       r="90.000099">
      <stop
         id="stop15772-3-4-4"
         offset="0.32539999"
         style="stop-color:#ffffff;stop-opacity:1" />
      <stop
         id="stop15774-0-1-0-2"
         offset="0.3714"
         style="stop-color:#f4f4f4;stop-opacity:1" />
      <stop
         id="stop15776-4-9-9-7"
         offset="0.45199999"
         style="stop-color:#d7d7d7;stop-opacity:1" />
      <stop
         id="stop15778-1-8-4-7"
         offset="0.55690002"
         style="stop-color:#a8a8a8;stop-opacity:1" />
      <stop
         id="stop15780-7-6-8-9"
         offset="0.62129998"
         style="stop-color:#888888;stop-opacity:1" />
      <stop
         id="stop15782-7-5-8-3"
         offset="0.67930001"
         style="stop-color:#a3a3a3;stop-opacity:1" />
      <stop
         id="stop15784-2-0-2-1"
         offset="0.7396"
         style="stop-color:#bbbbbb;stop-opacity:1" />
      <stop
         id="stop15786-1-2-4-9"
         offset="0.75199997"
         style="stop-color:#b3b3b3;stop-opacity:1" />
      <stop
         id="stop15788-3-8-5-8"
         offset="0.79140002"
         style="stop-color:#a0a0a0;stop-opacity:1" />
      <stop
         id="stop15790-1-6-5-6"
         offset="0.83710003"
         style="stop-color:#929292;stop-opacity:1" />
      <stop
         id="stop15792-3-0-1-5"
         offset="0.89450002"
         style="stop-color:#8a8a8a;stop-opacity:1" />
      <stop
         id="stop15794-1-2-7-0"
         offset="1"
         style="stop-color:#888888;stop-opacity:1" />
    </radialGradient>
    <radialGradient
       cx="64"
       cy="100.2246"
       gradientTransform="matrix(1,0,0,0.977,0,0.046)"
       gradientUnits="userSpaceOnUse"
       id="radialGradient4183"
       r="90.000099">
      <stop
         id="stop4185"
         offset="0.32539999"
         style="stop-color:#ffffff;stop-opacity:1" />
      <stop
         id="stop4187"
         offset="0.3714"
         style="stop-color:#f4f4f4;stop-opacity:1" />
      <stop
         id="stop4189"
         offset="0.45199999"
         style="stop-color:#d7d7d7;stop-opacity:1" />
      <stop
         id="stop4191"
         offset="0.55690002"
         style="stop-color:#a8a8a8;stop-opacity:1" />
      <stop
         id="stop4193"
         offset="0.62129998"
         style="stop-color:#888888;stop-opacity:1" />
      <stop
         id="stop4195"
         offset="0.67930001"
         style="stop-color:#a3a3a3;stop-opacity:1" />
      <stop
         id="stop4197"
         offset="0.7396"
         style="stop-color:#bbbbbb;stop-opacity:1" />
      <stop
         id="stop4199"
         offset="0.75199997"
         style="stop-color:#b3b3b3;stop-opacity:1" />
      <stop
         id="stop4201"
         offset="0.79140002"
         style="stop-color:#a0a0a0;stop-opacity:1" />
      <stop
         id="stop4203"
         offset="0.83710003"
         style="stop-color:#929292;stop-opacity:1" />
      <stop
         id="stop4205"
         offset="0.89450002"
         style="stop-color:#8a8a8a;stop-opacity:1" />
      <stop
         id="stop4207"
         offset="1"
         style="stop-color:#888888;stop-opacity:1" />
    </radialGradient>
    <filter
       inkscape:label="Drop Shadow"
       id="filter4079"
       color-interpolation-filters="sRGB">
      <feFlood
         flood-opacity="1"
         flood-color="rgb(0,0,0)"
         result="flood"
         id="feFlood4081" />
      <feComposite
         in="flood"
         in2="SourceGraphic"
         operator="in"
         result="composite1"
         id="feComposite4083" />
      <feGaussianBlur
         stdDeviation="4"
         result="blur"
         id="feGaussianBlur4085" />
      <feOffset
         dx="4"
         dy="2"
         result="offset"
         id="feOffset4087" />
      <feComposite
         in="SourceGraphic"
         in2="offset"
         operator="over"
         result="composite2"
         id="feComposite4089" />
    </filter>
  </defs>
  <sodipodi:namedview
     id="base"
     pagecolor="#000000"
     bordercolor="#666666"
     borderopacity="1.0"
     inkscape:pageopacity="0"
     inkscape:pageshadow="2"
     inkscape:zoom="2.3366877"
     inkscape:cx="90.079823"
     inkscape:cy="6.238442"
     inkscape:document-units="px"
     inkscape:current-layer="layer1"
     showgrid="false"
     inkscape:window-width="1280"
     inkscape:window-height="977"
     inkscape:window-x="-4"
     inkscape:window-y="-4"
     inkscape:window-maximized="1"
     showborder="true"
     inkscape:snap-bbox="true"
     inkscape:bbox-paths="true"
     inkscape:bbox-nodes="true"
     inkscape:snap-bbox-edge-midpoints="true"
     inkscape:snap-bbox-midpoints="true" />
  <metadata
     id="metadata7">
    <rdf:RDF>
      <cc:Work
         rdf:about="">
        <dc:format>image/svg+xml</dc:format>
        <dc:type
           rdf:resource="http://purl.org/dc/dcmitype/StillImage" />
        <dc:title></dc:title>
      </cc:Work>
    </rdf:RDF>
  </metadata>
  <g
     inkscape:label="Layer 1"
     inkscape:groupmode="layer"
     id="layer1"
     transform="translate(0,-992.3622)">
    <flowRoot
       xml:space="preserve"
       id="flowRoot3763"
       style="font-size:8px;font-style:normal;font-weight:normal;line-height:125%;letter-spacing:0px;word-spacing:0px;fill:#000000;fill-opacity:1;stroke:none;font-family:Sans"><flowRegion
         id="flowRegion3765"><rect
           id="rect3767"
           width="540.77795"
           height="186.2834"
           x="451.80676"
           y="511.58426"
           style="font-size:8px" /></flowRegion><flowPara
         id="flowPara3769" /></flowRoot>    <g
       id="g3986"
       transform="matrix(0.99999358,0,0,0.99999358,269.99809,455.85974)">
      <g
         id="g4036"
         style="filter:url(#filter4079)"
         inkscape:export-filename="F:\CURRENT\GitHup_P\rocketscientist26.github.io\images\Label_Hardware.png"
         inkscape:export-xdpi="90"
         inkscape:export-ydpi="90">
        <path
           style="fill:#242222;fill-opacity:1;stroke:none"
           d="m -270,551.36218 175.890411,0 -8.219181,30 -167.67123,0 z"
           id="rect3915"
           inkscape:connector-curvature="0"
           sodipodi:nodetypes="ccccc" />
        <path
           style="fill:#ff6600;fill-opacity:1;stroke:none"
           d="m -108.90411,555.91484 -5.72774,20.89469 2.57796,0 5.72774,-20.89469 z"
           id="path3927"
           inkscape:connector-curvature="0"
           sodipodi:nodetypes="ccccc" />
        <path
           sodipodi:nodetypes="ccccc"
           inkscape:connector-curvature="0"
           id="path3939"
           d="m -116.90411,555.91484 -5.72774,20.89469 2.57796,0 5.72774,-20.89469 z"
           style="fill:#ff6600;fill-opacity:1;stroke:none" />
        <path
           d="m -181.64064,572.51842 c -1.26564,0 -2.26434,-0.38542 -2.99609,-1.15624 -0.73178,-0.77083 -1.09766,-1.84115 -1.09766,-3.21094 0,-1.38021 0.33984,-2.47656 1.01952,-3.28905 0.6797,-0.8125 1.59245,-1.21875 2.73828,-1.21877 1.07292,2e-5 1.92187,0.35289 2.54688,1.05859 0.625,0.70575 0.93749,1.63673 0.9375,2.79298 l 0,0.82032 -5.89844,0 c 0.026,1.0052 0.27994,1.76823 0.76173,2.28905 0.48177,0.52083 1.16014,0.78126 2.03515,0.78126 0.92186,0 1.83333,-0.19271 2.73437,-0.57813 l 0,1.15625 c -0.45834,0.19791 -0.89193,0.33984 -1.30078,0.42578 -0.40887,0.0859 -0.90235,0.12889 -1.48046,0.12889 z m -0.35158,-7.78905 c -0.6875,0 -1.23568,0.22396 -1.64452,0.67186 -0.40885,0.44794 -0.64975,1.06772 -0.72265,1.85938 l 4.47655,0 c 0,-0.8177 -0.18225,-1.444 -0.54686,-1.8789 -0.3646,-0.43489 -0.88544,-0.65234 -1.56252,-0.65234 z m -5.89061,-1.08595 c 0.38021,2e-5 0.72134,0.0312 1.02344,0.0938 l -0.17975,1.20314 c -0.35417,-0.078 -0.66668,-0.11713 -0.93751,-0.11713 -0.6927,0 -1.28515,0.28126 -1.77734,0.84375 -0.49219,0.56251 -0.73829,1.26303 -0.73827,2.10156 l 0,4.59376 -1.29688,0 0,-8.5625 1.0703,0 0.14835,1.58592 0.0624,0 c 0.3177,-0.55727 0.70052,-0.98696 1.14844,-1.28906 0.44792,-0.30206 0.94011,-0.4531 1.47657,-0.45312 z m -7.54688,8.71876 -0.25781,-1.21876 -0.0624,0 c -0.4271,0.53646 -0.85288,0.89975 -1.27735,1.08986 -0.42447,0.19015 -0.95443,0.28514 -1.58984,0.28514 -0.84896,0 -1.51433,-0.21873 -1.9961,-0.65625 -0.48176,-0.4375 -0.72266,-1.05988 -0.72266,-1.86718 0,-1.72916 1.38281,-2.63542 4.14845,-2.71874 l 1.45312,-0.0468 0,-0.53124 c 0,-0.67188 -0.14449,-1.16796 -0.4336,-1.48828 -0.28906,-0.32031 -0.75129,-0.48046 -1.38672,-0.48046 -0.71353,0 -1.52083,0.21876 -2.42187,0.65623 l -0.39844,-0.99218 c 0.42187,-0.22916 0.88412,-0.40885 1.38672,-0.53906 0.50261,-0.13024 1.00651,-0.1953 1.51173,-0.19532 1.02081,2e-5 1.77732,0.22658 2.26953,0.6797 0.49217,0.45312 0.73827,1.1797 0.73827,2.17968 l 0,5.84376 z m -2.92968,-0.91406 c 0.80727,0 1.44139,-0.22136 1.90233,-0.66408 0.46095,-0.4427 0.6914,-1.06248 0.69142,-1.85937 l 0,-0.77343 -1.29689,0.0547 c -1.03125,0.0364 -1.77474,0.1966 -2.23046,0.48045 -0.45572,0.28386 -0.68359,0.72527 -0.68359,1.32423 0,0.46874 0.14198,0.82552 0.42578,1.0703 0.28385,0.24481 0.68099,0.3672 1.19141,0.3672 z m -7.78125,0.91406 -1.57032,-5.02343 c -0.099,-0.30731 -0.28386,-1.00521 -0.55469,-2.09376 l -0.0624,0 c -0.20834,0.91146 -0.39062,1.61459 -0.54687,2.10938 l -1.61719,5.00781 -1.5,0 -2.33594,-8.5625 1.35938,0 c 0.55207,2.15104 0.97265,3.78907 1.26171,4.91405 0.28906,1.12502 0.45443,1.88282 0.4961,2.27345 l 0.0624,0 c 0.0572,-0.29688 0.14969,-0.68099 0.27735,-1.15234 0.12753,-0.47137 0.23827,-0.84505 0.33203,-1.12111 l 1.5703,-4.91405 1.40626,0 1.53124,4.91405 c 0.29166,0.89584 0.48958,1.64844 0.59376,2.25782 l 0.0624,0 c 0.0208,-0.18745 0.0769,-0.47656 0.168,-0.86719 0.0911,-0.39062 0.6341,-2.49218 1.6289,-6.30468 l 1.34374,0 -2.36717,8.5625 z m -10.97657,-1.14844 -0.0703,0 c -0.59896,0.86979 -1.4948,1.30468 -2.6875,1.30468 -1.1198,0 -1.9909,-0.3828 -2.61329,-1.14842 -0.6224,-0.76563 -0.93359,-1.85417 -0.93359,-3.26563 0,-1.41146 0.3125,-2.50781 0.93751,-3.28908 0.62498,-0.78122 1.49477,-1.17185 2.60937,-1.17187 1.16145,2e-5 2.05207,0.42189 2.67187,1.26564 l 0.10153,0 -0.0547,-0.6172 -0.0312,-0.60157 0,-3.48436 1.29688,0 0,12.15625 -1.0547,0 z m -2.59375,0.21876 c 0.88542,0 1.52734,-0.2409 1.92579,-0.72267 0.39842,-0.48177 0.59765,-1.2591 0.59765,-2.33203 l 0,-0.27343 c 0,-1.21354 -0.20183,-2.07942 -0.60548,-2.59766 -0.40364,-0.51822 -1.04817,-0.77734 -1.93358,-0.77734 -0.76042,0 -1.34245,0.29557 -1.7461,0.88671 -0.40364,0.59115 -0.60547,1.42579 -0.60547,2.50391 0,1.09375 0.20052,1.91927 0.60156,2.47656 0.40105,0.55729 0.98959,0.83595 1.76563,0.83595 z m -5.85938,-7.78908 c 0.38021,2e-5 0.72136,0.0312 1.02344,0.0938 l -0.17975,1.20314 c -0.35417,-0.078 -0.66666,-0.11713 -0.93749,-0.11713 -0.69272,0 -1.28517,0.28126 -1.77734,0.84375 -0.49219,0.56251 -0.73829,1.26303 -0.73829,2.10156 l 0,4.59376 -1.29686,0 0,-8.5625 1.0703,0 0.14834,1.58592 0.0624,0 c 0.31771,-0.55727 0.70053,-0.98696 1.14845,-1.28906 0.4479,-0.30206 0.94009,-0.4531 1.47655,-0.45312 z m -7.54687,8.71876 -0.25782,-1.21876 -0.0624,0 c -0.42708,0.53646 -0.85286,0.89975 -1.27733,1.08986 -0.4245,0.19015 -0.95445,0.28514 -1.58986,0.28514 -0.84896,0 -1.51431,-0.21873 -1.9961,-0.65625 -0.48177,-0.4375 -0.72264,-1.05988 -0.72264,-1.86718 0,-1.72916 1.38281,-2.63542 4.14842,-2.71874 l 1.45313,-0.0468 0,-0.53124 c 0,-0.67188 -0.14449,-1.16796 -0.43358,-1.48828 -0.28908,-0.32031 -0.75131,-0.48046 -1.38672,-0.48046 -0.71355,0 -1.52085,0.21876 -2.42189,0.65623 l -0.39842,-0.99218 c 0.42187,-0.22916 0.8841,-0.40885 1.38671,-0.53906 0.5026,-0.13024 1.0065,-0.1953 1.51172,-0.19532 1.02083,2e-5 1.77734,0.22658 2.26953,0.6797 0.49217,0.45312 0.73827,1.1797 0.73829,2.17968 l 0,5.84376 z m -2.92969,-0.91406 c 0.80729,0 1.44141,-0.22136 1.90235,-0.66408 0.46092,-0.4427 0.6914,-1.06248 0.6914,-1.85937 l 0,-0.77343 -1.29687,0.0547 c -1.03125,0.0364 -1.77474,0.1966 -2.23046,0.48045 -0.45574,0.28386 -0.68362,0.72527 -0.68362,1.32423 0,0.46874 0.14199,0.82552 0.42579,1.0703 0.28385,0.24481 0.68099,0.3672 1.19141,0.3672 z m -5.28125,0.91406 -1.32813,0 0,-5.37501 -6.01563,0 0,5.37501 -1.32811,0 0,-11.42188 1.32811,0 0,4.85938 6.01563,0 0,-4.85938 1.32813,0 z"
           style="font-size:8.30507088px;font-style:normal;font-weight:normal;text-align:end;line-height:125%;letter-spacing:0px;word-spacing:0px;text-anchor:end;fill:#ffffff;fill-opacity:1;stroke:none;font-family:Open Sans;-inkscape-font-specification:Open Sans"
           id="path4010"
           inkscape:connector-curvature="0" />
        <path
           sodipodi:nodetypes="ccccc"
           inkscape:connector-curvature="0"
           id="rect4033"
           d="m -8.7757111,-9.0367842 193.8413511,0 0,48.3378102 -193.8413511,0 z"
           style="fill:none;stroke:none"
           transform="translate(-270,551.3622)" />
      </g>
    </g>
  </g>
</svg>
